SplineFontDB: 3.0
FontName: CloisterStM
FullName: Sorts Mill Cloister
FamilyName: Sorts Mill Cloister
Weight: Regular
Copyright: Created by trashman with FontForge 2.0 (http://fontforge.sf.net)
UComments: "2010-9-19: Created." 
Version: 001.000
ItalicAngle: 0
UnderlinePosition: -100
UnderlineWidth: 50
Ascent: 700
Descent: 300
LayerCount: 3
Layer: 0 0 "Back"  1
Layer: 1 0 "Fore"  0
Layer: 2 0 "backup"  0
NeedsXUIDChange: 1
XUID: [1021 658 797806517 6471305]
OS2Version: 0
OS2_WeightWidthSlopeOnly: 0
OS2_UseTypoMetrics: 1
CreationTime: 1284878830
ModificationTime: 1285070501
OS2TypoAscent: 0
OS2TypoAOffset: 1
OS2TypoDescent: 0
OS2TypoDOffset: 1
OS2TypoLinegap: 0
OS2WinAscent: 0
OS2WinAOffset: 1
OS2WinDescent: 0
OS2WinDOffset: 1
HheadAscent: 0
HheadAOffset: 1
HheadDescent: 0
HheadDOffset: 1
OS2Vendor: 'PfEd'
MarkAttachClasses: 1
DEI: 91125
Encoding: UnicodeBmp
UnicodeInterp: none
NameList: Adobe Glyph List
DisplaySize: -48
AntiAlias: 1
FitToEm: 1
WinInfo: 84 12 5
BeginChars: 65536 57

StartChar: A
Encoding: 65 65 0
Width: 720
VWidth: 0
Flags: HW
LayerCount: 3
Fore
SplineSet
144 75 m 0
 144 49 183 43 207 38 c 1
 204 3 l 1
 204 3 154 6 119 6 c 0
 64 6 30 2 30 2 c 1
 26 14 26 18 26 31 c 1
 54 48 72 60 83 80 c 2
 145 202 l 1
 293 520 l 1
 342 635 l 2
 344 641 347 643 358 643 c 2
 361 643 l 2
 365 643 370 642 371 639 c 2
 489 371 l 1
 607 117 l 2
 621 89 631 69 645 55 c 0
 655 45 669 41 682 36 c 1
 683 31 683 25 683 20 c 0
 683 13 682 7 681 0 c 1
 668 0 627 3 583 3 c 0
 564 3 483 0 483 0 c 1
 480 12 479 22 479 35 c 1
 517 43 534 43 534 60 c 0
 534 66 532 72 527 84 c 2
 477 201 l 2
 470 217 473 218 456 218 c 0
 405 216 363 215 313 215 c 0
 284 215 252 216 214 216 c 0
 207 216 205 214 198 199 c 0
 182 166 144 86 144 75 c 0
429 265 m 2
 437 265 445 265 445 270 c 0
 445 273 431 305 422 322 c 0
 394 375 372 430 347 485 c 0
 342 496 340 500 338 500 c 0
 337 500 329 489 318 466 c 0
 289 399 261 332 230 268 c 0
 229 266 231 264 234 264 c 2
 429 265 l 2
EndSplineSet
EndChar

StartChar: B
Encoding: 66 66 1
Width: 606
VWidth: 0
Flags: HW
LayerCount: 3
Fore
SplineSet
205 72 m 0
 205 37 236 41 300 38 c 0
 319 38 341 40 357 41 c 1
 432 63 456 127 456 181 c 0
 456 233 432 274 384 307 c 0
 357 326 315 329 271 329 c 2
 246 329 l 2
 221 329 211 325 211 317 c 0
 211 292 205 91 205 72 c 0
215 557 m 0
 215 512 212 464 212 420 c 0
 212 404 214 390 216 377 c 1
 237 375 259 373 279 373 c 0
 359 373 425 392 425 471 c 0
 425 497 408 547 356 572 c 0
 335 582 308 587 280 587 c 0
 269 587 258 586 246 584 c 0
 227 581 215 580 215 557 c 0
170 3 m 0
 128 3 59 -5 59 -5 c 1
 58 2 54 14 54 26 c 0
 54 30 55 34 56 38 c 1
 102 46 107 48 109 66 c 0
 121 202 125 314 125 422 c 2
 125 524 l 2
 125 580 116 582 77 590 c 1
 75 598 73 604 73 612 c 0
 73 617 74 622 76 626 c 1
 88 625 123 624 161 624 c 0
 183 624 218 628 295 628 c 0
 381 628 451 606 491 555 c 0
 505 537 511 514 511 489 c 0
 511 405 442 374 407 354 c 1
 458 334 551 300 551 198 c 0
 551 116 515 56 456 25 c 0
 419 6 374 -7 321 -7 c 0
 267 -7 224 3 170 3 c 0
EndSplineSet
EndChar

StartChar: C
Encoding: 67 67 2
Width: 660
VWidth: 0
Flags: HW
LayerCount: 3
Fore
SplineSet
50 318 m 0
 50 495 220 631 394 631 c 0
 447 631 485 620 507 611 c 0
 530 602 542 601 559 601 c 2
 585 601 l 2
 590 601 596 602 596 592 c 0
 597 576 598 561 598 545 c 0
 598 506 586 452 586 452 c 1
 581 449 585 443 563 442 c 0
 560 442 553 449 552 453 c 0
 534 545 479 582 397 582 c 0
 347 582 299 565 261 540 c 0
 187 491 156 421 156 313 c 0
 156 230 180 140 225 95 c 0
 238 83 253 72 269 62 c 0
 311 35 346 26 391 26 c 0
 476 26 539 75 564 150 c 1
 580 149 591 148 591 133 c 0
 591 83 571 20 552 -5 c 1
 532 -12 452 -18 417 -18 c 0
 311 -18 233 0 169 53 c 0
 100 110 50 190 50 318 c 0
EndSplineSet
EndChar

StartChar: D
Encoding: 68 68 3
Width: 768
VWidth: 0
Flags: HW
HStem: -7 49<36.1579 91.2213 245.613 443.908> 1 44<194.815 356.878> 582 45<44.1891 101.608 205.028 425.895>
VStem: 100 91<48.8175 546.206> 104 98<340.778 575.932> 599 104<202.699 414.582>
LayerCount: 3
Fore
SplineSet
103 625 m 0
 181 625 232 631 314 631 c 0
 377 631 438 625 497 601 c 0
 577 569 633 514 671 439 c 0
 691 400 703 366 703 302 c 0
 703 136 544 -7 360 -7 c 0
 293 -7 252 1 164 1 c 0
 128 1 78 -2 44 -6 c 1
 40 0 37 7 35 31 c 1
 50 35 73 41 82 50 c 0
 88 56 93 66 93 72 c 0
 103 188 104 391 104 407 c 2
 104 555 l 2
 104 558 92 580 84 580 c 0
 76 580 56 581 46 582 c 1
 46 587 44 591 44 595 c 0
 44 607 45 615 50 626 c 1
 65 626 95 625 103 625 c 0
599 316 m 0
 599 364 578 454 508 512 c 0
 456 555 384 584 283 584 c 0
 246 584 203 580 202 548 c 0
 198 407 191 284 191 221 c 0
 191 196 190 170 190 142 c 0
 190 115 191 82 195 66 c 0
 201 43 251 42 292 42 c 2
 311 42 l 2
 329 42 348 42 364 44 c 0
 509 62 599 157 599 316 c 0
EndSplineSet
EndChar

StartChar: E
Encoding: 69 69 4
Width: 612
VWidth: 0
Flags: HW
HStem: -2 41<51.1868 102.84> 1 45<203.372 458.721> 292 48<202 429.404> 580 46<204.72 467.361> 588 39<60 106.035>
VStem: 105 93<50.3639 288.969> 115 87<340.344 575.122> 439 40<205.687 280.64> 455 37<391.923 413.595> 496 27<480.509 525.272>
LayerCount: 3
Fore
SplineSet
537 614 m 0
 537 574 523 482 523 482 c 1
 516 480 506 479 496 480 c 1
 483 524 477 580 422 580 c 2
 421 580 l 1
 358 579 l 1
 247 576 l 1
 234 576 l 2
 211 576 204 576 204 545 c 2
 202 340 l 1
 397 345 l 2
 431 346 436 356 442 373 c 2
 455 414 l 1
 458 414 461 414 464 414 c 0
 479 414 483 412 492 409 c 1
 483 346 479 284 479 214 c 0
 479 205 466 204 466 204 c 1
 456 206 450 208 439 215 c 1
 434 254 l 2
 430 289 409 286 374 288 c 0
 337 290 311 292 284 292 c 2
 202 292 l 1
 201 231 198 170 198 108 c 0
 198 63 207 46 246 46 c 2
 389 46 l 2
 474 46 495 108 514 155 c 1
 521 155 l 2
 531 155 541 153 553 140 c 1
 534 74 l 2
 527 49 522 25 519 6 c 1
 519 6 508 -2 506 -2 c 0
 418 -1 311 1 213 1 c 0
 161 1 109 0 61 -2 c 0
 55 -2 55 0 51 10 c 1
 51 32 l 1
 51 32 57 35 69 39 c 0
 102 50 105 52 105 81 c 0
 105 234 115 382 115 533 c 0
 115 577 92 585 60 588 c 1
 59 591 59 594 59 597 c 0
 59 615 61 615 66 627 c 1
 217 623 l 1
 285 624 342 624 413 626 c 0
 439 627 517 630 528 630 c 0
 532 630 537 616 537 614 c 0
EndSplineSet
Layer: 2
SplineSet
537 614 m 4x3240
 537 574 523 482 523 482 c 5
 516 480 506 479 496 480 c 5
 483 524 477 580 422 580 c 6
 421 580 l 5
 358 579 l 5
 247 576 l 6
 213 575 204 581 204 545 c 6
 202 340 l 5
 397 345 l 6
 431 346 436 356 442 373 c 6
 455 414 l 5
 458 414 461 414 464 414 c 4
 479 414 483 412 492 409 c 5x32c0
 483 346 479 284 479 214 c 4
 479 205 466 204 466 204 c 5
 456 206 450 208 439 215 c 5
 434 254 l 6
 430 289 409 286 374 288 c 4
 337 290 311 292 284 292 c 6
 202 292 l 5x3340
 201 231 198 170 198 108 c 4
 198 63 207 46 246 46 c 6
 389 46 l 6x7440
 474 46 495 108 514 155 c 5
 521 155 l 6
 531 155 541 153 553 140 c 5
 534 74 l 6
 527 49 522 25 519 6 c 5
 519 6 508 -2 506 -2 c 4xa440
 418 -1 311 1 213 1 c 4x6440
 161 1 113 0 67 -2 c 4
 58 -2 55 0 51 10 c 5
 51 32 l 5
 51 32 57 35 69 39 c 4
 102 50 105 52 105 81 c 6
 105 122 l 5xa440
 108 259 115 396 115 533 c 4
 115 577 92 585 60 588 c 5
 59 593 59 597 59 601 c 4
 59 616 64 627 69 627 c 6xaa40
 217 623 l 5
 285 624 342 624 413 626 c 4
 439 627 517 630 528 630 c 4
 532 630 537 616 537 614 c 4x3240
EndSplineSet
EndChar

StartChar: F
Encoding: 70 70 5
Width: 555
VWidth: 0
Flags: HW
LayerCount: 3
Fore
SplineSet
219 579 m 0
 210 579 204 576 204 547 c 2
 202 338 l 1
 357 343 l 2
 404 344 399 366 405 401 c 1
 405 401 413 405 418 405 c 0
 425 405 434 403 444 398 c 1
 440 348 439 337 439 307 c 0
 439 277 442 258 442 229 c 0
 442 219 434 211 426 211 c 0
 416 211 402 218 400 230 c 0
 397 248 400 275 376 285 c 0
 360 292 337 294 316 294 c 2
 201 294 l 1
 200 252 196 204 196 158 c 2
 196 136 l 2
 196 100 197 71 208 57 c 0
 219 42 275 41 275 41 c 1
 275 41 285 31 285 17 c 0
 285 3 280 -3 280 -3 c 1
 280 -3 208 1 167 1 c 0
 121 1 86 -4 68 -4 c 0
 51 -4 50 1 50 24 c 0
 50 54 98 24 101 70 c 0
 110 212 116 357 116 470 c 2
 116 545 l 2
 116 563 106 580 94 584 c 0
 86 587 81 587 62 588 c 1
 61 593 59 600 59 605 c 0
 59 623 66 627 74 627 c 0
 106 627 202 624 248 624 c 0
 299 624 354 625 412 627 c 0
 436 628 463 630 488 631 c 0
 491 631 501 625 501 622 c 0
 501 597 497 573 495 546 c 0
 494 520 493 501 489 486 c 0
 487 478 480 475 472 475 c 0
 467 475 461 476 456 478 c 1
 454 489 452 506 449 522 c 0
 438 573 418 581 380 581 c 0
 335 581 270 579 219 579 c 0
EndSplineSet
EndChar

StartChar: G
Encoding: 71 71 6
Width: 768
VWidth: 0
Flags: HW
LayerCount: 3
Fore
SplineSet
280 260 m 0
 280 295 309 324 344 324 c 0
 379 324 408 295 408 260 c 0
 408 225 379 196 344 196 c 0
 309 196 280 225 280 260 c 0
EndSplineSet
EndChar

StartChar: H
Encoding: 72 72 7
Width: 768
VWidth: 0
Flags: HW
LayerCount: 3
Fore
SplineSet
280 260 m 0
 280 295 309 324 344 324 c 0
 379 324 408 295 408 260 c 0
 408 225 379 196 344 196 c 0
 309 196 280 225 280 260 c 0
EndSplineSet
EndChar

StartChar: I
Encoding: 73 73 8
Width: 768
VWidth: 0
Flags: HW
LayerCount: 3
Fore
SplineSet
280 260 m 0
 280 295 309 324 344 324 c 0
 379 324 408 295 408 260 c 0
 408 225 379 196 344 196 c 0
 309 196 280 225 280 260 c 0
EndSplineSet
EndChar

StartChar: J
Encoding: 74 74 9
Width: 768
VWidth: 0
Flags: HW
LayerCount: 3
Fore
SplineSet
280 260 m 0
 280 295 309 324 344 324 c 0
 379 324 408 295 408 260 c 0
 408 225 379 196 344 196 c 0
 309 196 280 225 280 260 c 0
EndSplineSet
EndChar

StartChar: K
Encoding: 75 75 10
Width: 768
VWidth: 0
Flags: HW
LayerCount: 3
Fore
SplineSet
280 260 m 0
 280 295 309 324 344 324 c 0
 379 324 408 295 408 260 c 0
 408 225 379 196 344 196 c 0
 309 196 280 225 280 260 c 0
EndSplineSet
EndChar

StartChar: L
Encoding: 76 76 11
Width: 768
VWidth: 0
Flags: HW
LayerCount: 3
Fore
SplineSet
280 260 m 0
 280 295 309 324 344 324 c 0
 379 324 408 295 408 260 c 0
 408 225 379 196 344 196 c 0
 309 196 280 225 280 260 c 0
EndSplineSet
EndChar

StartChar: M
Encoding: 77 77 12
Width: 768
VWidth: 0
Flags: HW
LayerCount: 3
Fore
SplineSet
280 260 m 0
 280 295 309 324 344 324 c 0
 379 324 408 295 408 260 c 0
 408 225 379 196 344 196 c 0
 309 196 280 225 280 260 c 0
EndSplineSet
EndChar

StartChar: N
Encoding: 78 78 13
Width: 768
VWidth: 0
Flags: HW
LayerCount: 3
Fore
SplineSet
280 260 m 0
 280 295 309 324 344 324 c 0
 379 324 408 295 408 260 c 0
 408 225 379 196 344 196 c 0
 309 196 280 225 280 260 c 0
EndSplineSet
EndChar

StartChar: O
Encoding: 79 79 14
Width: 768
VWidth: 0
Flags: HW
LayerCount: 3
Fore
SplineSet
280 260 m 0
 280 295 309 324 344 324 c 0
 379 324 408 295 408 260 c 0
 408 225 379 196 344 196 c 0
 309 196 280 225 280 260 c 0
EndSplineSet
EndChar

StartChar: P
Encoding: 80 80 15
Width: 768
VWidth: 0
Flags: HW
LayerCount: 3
Fore
SplineSet
280 260 m 0
 280 295 309 324 344 324 c 0
 379 324 408 295 408 260 c 0
 408 225 379 196 344 196 c 0
 309 196 280 225 280 260 c 0
EndSplineSet
EndChar

StartChar: Q
Encoding: 81 81 16
Width: 768
VWidth: 0
Flags: HW
LayerCount: 3
Fore
SplineSet
280 260 m 0
 280 295 309 324 344 324 c 0
 379 324 408 295 408 260 c 0
 408 225 379 196 344 196 c 0
 309 196 280 225 280 260 c 0
EndSplineSet
EndChar

StartChar: R
Encoding: 82 82 17
Width: 768
VWidth: 0
Flags: HW
LayerCount: 3
Fore
SplineSet
280 260 m 0
 280 295 309 324 344 324 c 0
 379 324 408 295 408 260 c 0
 408 225 379 196 344 196 c 0
 309 196 280 225 280 260 c 0
EndSplineSet
EndChar

StartChar: S
Encoding: 83 83 18
Width: 768
VWidth: 0
Flags: HW
LayerCount: 3
Fore
SplineSet
280 260 m 0
 280 295 309 324 344 324 c 0
 379 324 408 295 408 260 c 0
 408 225 379 196 344 196 c 0
 309 196 280 225 280 260 c 0
EndSplineSet
EndChar

StartChar: T
Encoding: 84 84 19
Width: 768
VWidth: 0
Flags: HW
LayerCount: 3
Fore
SplineSet
280 260 m 0
 280 295 309 324 344 324 c 0
 379 324 408 295 408 260 c 0
 408 225 379 196 344 196 c 0
 309 196 280 225 280 260 c 0
EndSplineSet
EndChar

StartChar: U
Encoding: 85 85 20
Width: 768
VWidth: 0
Flags: HW
LayerCount: 3
Fore
SplineSet
280 260 m 0
 280 295 309 324 344 324 c 0
 379 324 408 295 408 260 c 0
 408 225 379 196 344 196 c 0
 309 196 280 225 280 260 c 0
EndSplineSet
EndChar

StartChar: V
Encoding: 86 86 21
Width: 768
VWidth: 0
Flags: HW
LayerCount: 3
Fore
SplineSet
280 260 m 0
 280 295 309 324 344 324 c 0
 379 324 408 295 408 260 c 0
 408 225 379 196 344 196 c 0
 309 196 280 225 280 260 c 0
EndSplineSet
EndChar

StartChar: W
Encoding: 87 87 22
Width: 768
VWidth: 0
Flags: HW
LayerCount: 3
Fore
SplineSet
280 260 m 0
 280 295 309 324 344 324 c 0
 379 324 408 295 408 260 c 0
 408 225 379 196 344 196 c 0
 309 196 280 225 280 260 c 0
EndSplineSet
EndChar

StartChar: X
Encoding: 88 88 23
Width: 768
VWidth: 0
Flags: HW
LayerCount: 3
Fore
SplineSet
280 260 m 0
 280 295 309 324 344 324 c 0
 379 324 408 295 408 260 c 0
 408 225 379 196 344 196 c 0
 309 196 280 225 280 260 c 0
EndSplineSet
EndChar

StartChar: Y
Encoding: 89 89 24
Width: 768
VWidth: 0
Flags: HW
LayerCount: 3
Fore
SplineSet
280 260 m 0
 280 295 309 324 344 324 c 0
 379 324 408 295 408 260 c 0
 408 225 379 196 344 196 c 0
 309 196 280 225 280 260 c 0
EndSplineSet
EndChar

StartChar: Z
Encoding: 90 90 25
Width: 768
VWidth: 0
Flags: HW
LayerCount: 3
Fore
SplineSet
280 260 m 0
 280 295 309 324 344 324 c 0
 379 324 408 295 408 260 c 0
 408 225 379 196 344 196 c 0
 309 196 280 225 280 260 c 0
EndSplineSet
EndChar

StartChar: a
Encoding: 97 97 26
Width: 400
VWidth: 0
Flags: HW
LayerCount: 3
Fore
SplineSet
164 315 m 0
 132 315 132 285 130 272 c 1
 130 272 88 245 58 245 c 0
 50 245 43 252 43 262 c 0
 43 283 76 323 116 344 c 0
 146 359 179 369 205 369 c 0
 272 369 310 333 310 269 c 0
 310 219 305 121 305 97 c 0
 305 71 311 43 336 43 c 0
 350 43 375 53 375 53 c 1
 375 53 382 45 384 27 c 1
 346 -2 304 -15 280 -15 c 0
 244 -15 238 32 237 36 c 1
 231 31 218 21 204 13 c 0
 179 -1 149 -14 129 -14 c 0
 60 -14 31 35 31 82 c 0
 31 130 74 150 116 162 c 0
 149 171 183 175 220 179 c 0
 232 180 234 188 234 196 c 2
 234 216 l 2
 234 284 212 315 164 315 c 0
141 132 m 0
 119 124 106 111 106 87 c 0
 106 59 127 32 156 32 c 0
 198 32 234 61 234 67 c 2
 234 134 l 2
 234 145 233 148 225 148 c 0
 204 148 156 137 141 132 c 0
EndSplineSet
EndChar

StartChar: b
Encoding: 98 98 27
Width: 450
VWidth: 0
Flags: HW
LayerCount: 3
Fore
SplineSet
130 319 m 1
 130 319 199 368 264 368 c 0
 351 368 418 304 418 197 c 0
 418 144 394 101 358 64 c 0
 313 17 259 -4 210 -4 c 0
 183 -4 162 -5 138 -5 c 2
 107 -5 l 2
 77 -5 53 -1 53 32 c 0
 53 182 67 404 67 456 c 2
 67 532 l 2
 67 583 26 594 26 604 c 0
 26 612 48 628 76 642 c 0
 99 653 129 668 143 673 c 1
 149 669 150 669 155 664 c 1
 144 593 142 566 141 532 c 0
 135 386 130 319 130 319 c 1
129 189 m 4
 129 161 130 134 133 102 c 4
 137 59 174 42 224 42 c 4
 303 42 344 106 344 174 c 4
 344 248 288 308 220 308 c 4
 193 308 148 297 140 284 c 4
 132 271 132 266 130 242 c 4
 129 230 129 198 129 189 c 4
EndSplineSet
EndChar

StartChar: c
Encoding: 99 99 28
Width: 357
VWidth: 0
Flags: HW
LayerCount: 3
Fore
SplineSet
241 376 m 0
 250 376 330 364 330 328 c 0
 330 303 303 282 282 282 c 0
 254 282 227 318 198 318 c 0
 132 318 105 258 105 200 c 0
 105 78 166 38 216 38 c 0
 261 38 307 71 307 71 c 1
 307 71 322 62 322 48 c 0
 322 24 248 -12 194 -12 c 0
 82 -12 22 55 22 157 c 0
 22 279 123 376 241 376 c 0
EndSplineSet
EndChar

StartChar: d
Encoding: 100 100 29
Width: 470
VWidth: 0
Flags: HW
LayerCount: 3
Fore
SplineSet
217 366 m 0
 262 366 313 354 313 354 c 1
 313 354 314 397 314 448 c 0
 314 471 315 517 315 539 c 0
 315 554 295 565 273 577 c 0
 262 583 261 586 261 592 c 0
 261 615 360 662 382 673 c 1
 386 672 396 665 398 661 c 1
 396 644 388 571 387 547 c 0
 385 487 385 419 385 351 c 2
 385 150 l 2
 385 32 387 41 387 39 c 1
 391 35 394 33 399 34 c 0
 406 35 432 44 442 46 c 1
 448 42 449 42 453 34 c 0
 453 32 454 30 454 28 c 0
 454 23 454 17 452 7 c 1
 386 -11 360 -24 328 -36 c 1
 323 -33 317 -28 315 -22 c 1
 314 32 l 2
 313 32 255 -15 197 -15 c 0
 77 -15 24 74 24 179 c 0
 24 233 51 279 87 312 c 0
 123 345 173 366 217 366 c 0
298 285 m 0
 276 301 243 318 217 318 c 0
 137 318 99 264 99 198 c 0
 99 131 150 46 218 46 c 0
 245 46 298 56 314 74 c 1
 314 74 313 109 313 152 c 2
 311 254 l 2
 311 274 309 277 298 285 c 0
EndSplineSet
EndChar

StartChar: e
Encoding: 101 101 30
Width: 388
VWidth: 0
Flags: HW
LayerCount: 3
Fore
SplineSet
28 149 m 0
 28 264 98 369 204 369 c 0
 265 369 316 318 326 267 c 0
 327 264 330 264 333 264 c 2
 338 264 l 2
 346 264 354 262 354 243 c 0
 354 237 352 232 349 231 c 0
 321 225 303 221 278 216 c 0
 218 204 111 178 111 178 c 1
 111 161 l 2
 111 104 141 39 207 39 c 0
 262 39 308 76 325 89 c 0
 327 91 335 90 336 88 c 0
 341 82 345 72 345 65 c 0
 345 57 324 42 319 38 c 0
 287 13 252 -15 186 -15 c 0
 89 -15 28 63 28 149 c 0
115 217 m 1
 249 251 l 1
 249 251 226 325 178 325 c 0
 124 325 116 219 115 217 c 1
EndSplineSet
EndChar

StartChar: f
Encoding: 102 102 31
Width: 280
VWidth: 0
Flags: HW
LayerCount: 3
Fore
SplineSet
54 42 m 0
 68 45 72 53 72 72 c 2
 74 316 l 1
 32 316 l 2
 23 316 18 324 18 336 c 2
 18 352 l 2
 18 362 24 366 36 366 c 0
 39 366 60 364 74 363 c 1
 74 406 76 450 86 497 c 0
 96 544 130 585 168 616 c 0
 195 638 231 667 292 667 c 0
 322 667 358 659 358 631 c 0
 358 607 347 577 328 577 c 0
 305 577 268 607 243 607 c 0
 207 607 178 579 168 547 c 0
 148 483 147 423 147 396 c 2
 147 363 l 1
 258 365 l 2
 269 365 270 365 270 352 c 2
 270 321 l 2
 270 308 267 309 261 309 c 2
 147 314 l 1
 147 97 l 2
 147 63 148 43 160 43 c 2
 217 43 l 1
 220 38 223 36 223 21 c 0
 223 11 222 6 216 -2 c 1
 209 -2 180 -1 164 -1 c 0
 110 -1 80 -3 41 -7 c 1
 37 -7 l 2
 22 -7 18 4 18 20 c 0
 18 37 33 37 54 42 c 0
EndSplineSet
Layer: 2
SplineSet
94 41 m 4
 108 45 112 53 112 72 c 6
 114 316 l 5
 68 315 l 6
 59 315 57 324 57 336 c 4
 57 343 58 350 58 356 c 4
 58 361 66 365 67 365 c 6
 114 363 l 5
 114 406 115 450 125 497 c 4
 135 544 170 585 208 616 c 4
 235 638 271 667 332 667 c 4
 362 667 398 659 398 631 c 4
 398 607 387 577 368 577 c 4
 345 577 308 607 283 607 c 4
 247 607 218 579 208 547 c 4
 188 483 187 423 187 396 c 6
 187 363 l 5
 298 365 l 6
 309 365 310 365 310 352 c 6
 310 321 l 6
 310 308 307 309 301 309 c 6
 187 314 l 5
 187 97 l 6
 187 63 188 43 200 43 c 6
 257 43 l 5
 260 38 263 36 263 21 c 4
 263 11 262 6 256 -2 c 5
 249 -2 220 -1 204 -1 c 4
 150 -1 120 -3 81 -7 c 5
 77 -7 l 6
 62 -7 58 4 58 20 c 4
 58 37 73 35 94 41 c 4
EndSplineSet
EndChar

StartChar: g
Encoding: 103 103 32
Width: 422
VWidth: 0
Flags: W
HStem: -281 57<103.929 270.062> -74 63<123.055 311.392> 301 50<317.005 407.983> 321 44<116.268 221.904>
VStem: -4 75<-193.501 -120.594> 24 71<151.706 284.206> 275 67<130.071 261.024> 341 64<-174.095 -102.007>
LayerCount: 3
Back
SplineSet
341 -138 m 4xc9
 341 -90 275 -81 218 -78 c 4
 197 -77 178 -74 176 -74 c 4
 141 -76 71 -105 71 -153 c 4
 71 -202 139 -224 196 -224 c 4
 251 -224 341 -200 341 -138 c 4xc9
408 328 m 6
 408 313 l 6
 408 304 407 300 397 300 c 4
 380 300 349 301 334 301 c 4
 324 301 317 298 317 287 c 4
 317 279 342 262 342 207 c 4xe6
 342 106 253 60 206 52 c 4
 181 48 121 25 121 11 c 4
 121 -8 185 -11 229 -11 c 6
 267 -11 l 6
 322 -11 405 -34 405 -110 c 4
 405 -158 377 -187 343 -216 c 4
 288 -262 221 -281 158 -281 c 4
 99 -281 -4 -257 -4 -170 c 4xe9
 -4 -102 104 -67 104 -67 c 5
 104 -67 21 -44 21 -10 c 4
 21 41 120 49 120 53 c 4
 120 62 24 89 24 195 c 4
 24 298 94 365 192 365 c 4xd4
 221 365 237.934552749 352.861817661 264 351 c 4xe4
 265.176578624 350.91595867 266.882722572 350.877040735 269.037033321 350.877040735 c 4
 296.058824854 350.877040735 393.590705565 357 401 357 c 5
 402 354 408 348 408 328 c 6
200 95 m 4
 252 95 275 137 275 179 c 4
 275 244 233 321 162 321 c 4xd6
 116 321 95 279 95 234 c 4
 95 174 132 95 200 95 c 4
EndSplineSet
Fore
SplineSet
341 -138 m 0xc9
 341 -90 275 -81 218 -78 c 0
 197 -77 178 -74 176 -74 c 0
 141 -76 71 -105 71 -153 c 0
 71 -202 139 -224 196 -224 c 0
 251 -224 341 -200 341 -138 c 0xc9
408 328 m 2
 408 313 l 2
 408 304 407 300 397 300 c 0
 380 300 349 301 334 301 c 0
 324 301 317 298 317 287 c 0
 317 279 342 262 342 207 c 0xe6
 342 106 253 60 206 52 c 0
 181 48 121 25 121 11 c 0
 121 -8 185 -11 229 -11 c 2
 267 -11 l 2
 322 -11 405 -34 405 -110 c 0
 405 -158 377 -187 343 -216 c 0
 288 -262 221 -281 158 -281 c 0
 99 -281 -4 -257 -4 -170 c 0xe9
 -4 -102 104 -67 104 -67 c 1
 104 -67 21 -44 21 -10 c 0
 21 41 120 49 120 53 c 0
 120 62 24 89 24 195 c 0
 24 298 94 365 192 365 c 0xd4
 221 365 238 353 264 351 c 1
 269 351 l 2xe4
 296 351 394 357 401 357 c 1
 402 354 408 348 408 328 c 2
200 95 m 0
 252 95 275 137 275 179 c 0
 275 244 233 321 162 321 c 0xd6
 116 321 95 279 95 234 c 0
 95 174 132 95 200 95 c 0
EndSplineSet
EndChar

StartChar: h
Encoding: 104 104 33
Width: 500
VWidth: 0
Flags: HW
LayerCount: 3
Fore
SplineSet
29 -2 m 1
 27 5 25 12 25 18 c 0
 25 22 26 27 27 31 c 1
 37 34 50 35 58 43 c 0
 69 54 73 76 74 108 c 0
 79 256 83 399 83 546 c 0
 83 584 38 587 38 598 c 0
 38 610 59 623 82 636 c 0
 111 652 144 670 157 676 c 1
 157 676 166 670 171 664 c 1
 158 605 158 598 154 488 c 0
 151 413 151 342 151 306 c 1
 191 350 239 368 273 368 c 0
 372 368 412 310 412 232 c 0
 412 189 408 122 408 84 c 0
 408 36 422 41 469 35 c 1
 469 35 472 29 472 21 c 0
 472 13 470 6 468 0 c 1
 452 1 422 1 398 1 c 0
 368 1 304 -1 289 -2 c 1
 285 4 284 11 284 19 c 0
 284 23 285 26 285 30 c 1
 324 38 335 32 335 82 c 0
 335 129 337 173 337 218 c 0
 337 278 299 321 247 321 c 0
 214 321 168 298 151 276 c 1
 151 242 149 194 149 149 c 0
 149 108 150 64 155 45 c 1
 173 41 189 40 210 36 c 1
 211 32 212 28 212 24 c 0
 212 16 210 8 209 2 c 1
 107 2 l 2
 84 2 60 1 29 -2 c 1
EndSplineSet
EndChar

StartChar: i
Encoding: 105 105 34
Width: 264
VWidth: 0
Flags: HW
HStem: -8 35<52.0036 88.9678> 2 34<170.336 237.996> 362 20G<123.286 165> 513 88<105.44 180.56>
VStem: 95 75<36.4062 293.385> 99 88<519.44 594.56>
LayerCount: 3
Fore
SplineSet
164 382 m 5
 168 381 176 377 181 371 c 5
 178 344 170 262 170 223 c 6
 170 66 l 6
 170 51 170 36 181 36 c 6
 233 38 l 5
 233 38 238 27 238 19 c 4
 238 14 233 2 233 2 c 5
 209 2 l 6x78
 187 2 154 2 120 0 c 4
 115 0 101 -2 87 -4 c 4
 75 -6 64 -8 59 -8 c 4
 57 -8 52 -5 52 -5 c 5
 49 2 48 8 48 17 c 4
 48 22 50 27 52 27 c 4
 67 30 94 30 94 66 c 4
 94 88 95 121 95 158 c 6
 95 268 l 6
 95 291.752929688 79.8701171875 295.983398438 67 299.78515625 c 4
 56.8896484375 302.771484375 50.91015625 303.110351562 50.91015625 316.716796875 c 4
 50.91015625 319.686523438 51.236328125 324.708007812 52 327 c 5
 90 344 124 361 164 382 c 5
99 557 m 0x34
 99 581 119 601 143 601 c 0
 167 601 187 581 187 557 c 0
 187 533 167 513 143 513 c 0
 119 513 99 533 99 557 c 0x34
EndSplineSet
EndChar

StartChar: j
Encoding: 106 106 35
Width: 226
VWidth: 0
Flags: HW
LayerCount: 3
Fore
SplineSet
-39 -207 m 0
 -39 -184 -30 -162 -7 -162 c 0
 23 -162 27 -199 53 -199 c 0
 77 -199 82 -155 84 -123 c 0
 86 -96 87 -70 87 -44 c 0
 87 70 85 150 84 267 c 0
 84 277 84 280 77 287 c 0
 72 292 57 298 38 301 c 1
 35 309 35 317 37 325 c 1
 149 382 l 1
 153 381 161 377 166 371 c 1
 160 318 160 256 160 193 c 2
 160 30 l 2
 160 -5 160 -58 154 -95 c 0
 141 -180 86 -252 11 -252 c 0
 -13 -252 -39 -244 -39 -207 c 0
83 558 m 0
 83 581 102 600 125 600 c 0
 148 600 167 581 167 558 c 0
 167 535 148 516 125 516 c 0
 102 516 83 535 83 558 c 0
EndSplineSet
EndChar

StartChar: k
Encoding: 107 107 36
Width: 500
VWidth: 0
Flags: HW
HStem: 0 40<26.1863 65.7799 153.142 208.696 398.453 467> 325 35<233.215 283.966 362.661 439.926>
VStem: 77 74<46.3712 166 220 540.931> 84 71<220 585.397>
LayerCount: 3
Fore
SplineSet
440 345 m 0xe0
 440 335 437 324 437 324 c 1
 437 324 416 325 408 325 c 0
 406 325 390 321 388 320 c 0
 327 292 272 254 237 230 c 0
 224 221 219 218 219 214 c 0
 219 211 223 207 231 198 c 0
 258 171 332 104 384 69 c 0
 406 54 414 50 445 44 c 0
 454 42 462 41 467 40 c 1
 468 35 468 31 468 27 c 0
 468 17 466 9 462 0 c 1
 401 0 l 2
 338 0 288 43 242 88 c 2
 172 157 l 2
 160 168 161 171 150 166 c 1
 150 105 l 2
 150 43 152 46 207 39 c 1
 209 34 209 29 209 25 c 0
 209 17 207 11 205 4 c 1
 149 3 94 4 38 -2 c 1
 29 4 26 14 26 24 c 0
 26 28 27 33 28 37 c 1
 38 40 52 42 60 50 c 0
 71 61 74 90 77 188 c 0xe0
 81 321 84 417 84 547 c 0
 84 587 42 593 42 604 c 0
 42 625 128 665 157 679 c 1
 157 679 168 674 173 668 c 1
 160 609 159 598 155 488 c 0xd0
 152 413 151 342 151 306 c 2
 151 220 l 1
 151 220 206 253 245 280 c 0
 268 296 284 302 284 317 c 0
 284 324 237 327 237 327 c 1
 237 327 233 338 233 346 c 0
 233 352 237 362 237 362 c 1
 237 362 321 360 337 360 c 2
 339 360 l 2
 369 360 436 363 436 363 c 1
 436 363 440 352 440 345 c 0xe0
EndSplineSet
EndChar

StartChar: l
Encoding: 108 108 37
Width: 263
VWidth: 0
Flags: HW
HStem: -3 35<26.308 67.4178> 4 38<154.503 221.994> 659 20G<142.5 173>
VStem: 78 74<51.9825 587.422>
LayerCount: 3
Fore
SplineSet
218 43 m 1x70
 222 38 222 29 222 21 c 0
 222 15 220 8 218 3 c 1
 205 3 193 4 181 4 c 0x70
 126 4 82 1 34 -3 c 1
 28 2 26 11 26 20 c 0
 26 24 26 28 27 32 c 1xb0
 37 35 65 40 68 51 c 0
 73 72 77 90 78 188 c 0
 80 322 84 412 84 542 c 0
 84 582 38 594 38 608 c 0
 38 626 130 668 155 679 c 1
 155 679 168 674 173 668 c 1
 160 609 158 597 155 488 c 0
 153 413 152 342 152 306 c 2
 152 70 l 2
 152 53 175 42 180 42 c 0
 190 42 206 43 218 43 c 1x70
EndSplineSet
EndChar

StartChar: m
Encoding: 109 109 38
Width: 699
VWidth: 0
Flags: HW
LayerCount: 3
Fore
SplineSet
312 171 m 0
 312 235 310 310 242 310 c 0
 217 310 191 294 172 281 c 0
 160 272 150 254 150 229 c 0
 150 184 150 138 152 95 c 0
 153 73 158 42 161 41 c 2
 207 29 l 1
 207 29 208 23 208 15 c 0
 208 10 203 -2 203 -2 c 1
 177 -1 145 0 115 0 c 0
 85 0 55 -1 33 -2 c 1
 30 2 29 8 29 13 c 0
 29 21 30 27 33 32 c 1
 53 37 74 31 77 64 c 0
 79 86 79 117 79 154 c 2
 78 258 l 2
 78 283 32 289 32 294 c 2
 32 309 l 2
 32 314 111 369 136 382 c 1
 140 381 147 378 152 372 c 1
 150 356 149 320 149 285 c 1
 178 320 223 364 285 364 c 0
 338 364 366 318 377 288 c 1
 400 316 432 364 500 364 c 0
 577 364 615 287 615 203 c 0
 615 167 613 121 613 85 c 0
 613 42 621 37 646 35 c 0
 662 34 678 31 678 31 c 1
 680 26 681 21 681 17 c 0
 681 11 679 5 675 -2 c 1
 644 -2 618 0 583 0 c 0
 551 0 500 -3 500 -3 c 1
 500 -3 493 6 493 14 c 0
 493 20 495 32 495 32 c 1
 502 35 535 37 537 47 c 0
 543 73 543 101 543 129 c 2
 543 136 l 2
 543 214 541 305 473 305 c 0
 424 305 379 283 379 245 c 0
 379 227 381 194 381 173 c 0
 381 137 379 88 379 59 c 0
 379 35 401 34 435 28 c 1
 436 17 434 9 430 -2 c 1
 417 -2 376 1 351 1 c 0
 316 1 292 -1 262 -4 c 1
 258 4 255 10 255 18 c 0
 255 22 256 26 258 31 c 1
 298 34 300 34 303 51 c 0
 310 86 312 156 312 171 c 0
EndSplineSet
Layer: 2
SplineSet
258 35 m 5
 298 38 300 38 303 55 c 4
 310 90 312 160 312 175 c 4
 312 240 310 314 240 314 c 4
 213 314 189 299 166 282 c 4
 151 271 150 239 150 233 c 4
 150 188 150 142 152 99 c 4
 153 77 158 46 161 45 c 6
 207 33 l 5
 207 33 208 27 208 19 c 4
 208 14 203 2 203 2 c 5
 177 3 145 4 115 4 c 4
 85 4 55 3 33 2 c 5
 30 6 29 12 29 17 c 4
 29 25 30 31 33 36 c 5
 53 41 74 35 77 68 c 4
 79 90 79 121 79 158 c 6
 78 262 l 6
 78 288 32 293 32 298 c 6
 32 313 l 6
 32 318 111 373 136 386 c 5
 140 385 147 382 152 376 c 5
 150 360 149 324 149 289 c 5
 178 324 223 368 285 368 c 4
 334 368 359 329 371 309 c 4
 375 303 378 292 378 292 c 5
 378 292 388 303 394 311 c 4
 409 331 442 368 500 368 c 4
 577 368 615 291 615 207 c 4
 615 171 613 125 613 89 c 4
 613 46 621 41 646 39 c 4
 662 38 678 35 678 35 c 5
 680 30 681 25 681 21 c 4
 681 15 679 9 675 2 c 5
 644 2 618 4 583 4 c 4
 551 4 500 1 500 1 c 5
 500 1 493 10 493 18 c 4
 493 24 495 36 495 36 c 5
 502 39 535 41 537 51 c 4
 543 77 543 105 543 133 c 6
 543 140 l 6
 543 218 541 309 473 309 c 4
 424 309 379 287 379 249 c 4
 379 231 381 198 381 177 c 4
 381 141 379 92 379 63 c 4
 379 39 401 38 435 32 c 5
 436 21 434 13 430 2 c 5
 417 2 376 5 351 5 c 4
 316 5 292 3 262 0 c 5
 258 8 255 14 255 22 c 4
 255 26 256 30 258 35 c 5
EndSplineSet
EndChar

StartChar: n
Encoding: 110 110 39
Width: 481
VWidth: 0
Flags: HW
LayerCount: 3
Fore
SplineSet
242 301 m 0
 211 301 168 282 152 270 c 1
 152 236 151 211 151 171 c 0
 151 135 152 113 154 78 c 0
 156 45 167 38 171 38 c 2
 207 35 l 1
 209 32 210 24 210 16 c 0
 210 10 210 4 207 0 c 1
 191 1 167 1 141 1 c 0
 104 1 61 0 32 -4 c 1
 29 0 25 11 25 21 c 0
 25 26 27 30 30 34 c 1
 70 44 77 31 77 103 c 2
 77 263 l 2
 77 301 31 300 31 307 c 2
 31 322 l 2
 31 330 105 370 137 384 c 1
 141 383 148 380 153 374 c 1
 151 351 151 332 151 316 c 2
 151 291 l 1
 181 324 234 365 297 365 c 0
 383 365 397 290 397 203 c 0
 397 131 393 110 393 68 c 0
 393 43 403 40 425 38 c 0
 455 36 460 35 460 16 c 0
 460 2 449 0 437 -0 c 0
 415 0 393 1 372 1 c 0
 343 1 313 -3 285 -3 c 2
 277 -3 l 1
 274 1 272 6 272 11 c 0
 272 17 274 23 276 29 c 1
 281 31 292 33 301 34 c 0
 318 37 318 46 318 59 c 0
 320 113 322 163 322 213 c 0
 322 259 309 301 242 301 c 0
EndSplineSet
EndChar

StartChar: o
Encoding: 111 111 40
Width: 446
VWidth: 0
Flags: HW
LayerCount: 3
Fore
SplineSet
221 -10 m 0
 122 -10 34 58 34 168 c 0
 34 279 108 370 220 370 c 0
 331 370 407 282 407 189 c 0
 407 66 321 -10 221 -10 c 0
208 331 m 0
 150 331 118 274 118 202 c 0
 118 120 161 31 231 31 c 0
 300 31 324 98 324 162 c 0
 324 235 275 331 208 331 c 0
EndSplineSet
EndChar

StartChar: p
Encoding: 112 112 41
Width: 454
VWidth: 0
Flags: HW
LayerCount: 3
Fore
SplineSet
429 196 m 0
 429 72 338 -10 231 -10 c 0
 190 -10 144 1 144 1 c 1
 146 -202 l 2
 146 -218 154 -233 160 -233 c 2
 212 -232 l 1
 216 -237 219 -245 219 -254 c 0
 219 -260 217 -266 213 -272 c 1
 188 -272 l 2
 136 -272 84 -276 28 -278 c 1
 25 -275 24 -269 24 -262 c 0
 24 -255 25 -248 28 -244 c 1
 43 -241 70 -241 70 -181 c 0
 70 -91 69 175 68 265 c 0
 68 282 51 294 38 298 c 0
 28 301 24 300 24 314 c 0
 24 317 26 325 27 327 c 1
 129 390 l 1
 133 389 139 388 145 382 c 1
 144 372 144 328 144 328 c 1
 159 337 196 367 261 367 c 0
 384 367 429 268 429 196 c 0
161 63 m 0
 177 52 204 37 234 37 c 0
 310 37 357 74 357 165 c 0
 357 236 300 315 223 315 c 0
 174 315 142 292 142 292 c 1
 142 143 l 1
 145 98 l 2
 147 76 147 73 161 63 c 0
EndSplineSet
EndChar

StartChar: q
Encoding: 113 113 42
Width: 460
VWidth: 0
Flags: HW
LayerCount: 3
Fore
SplineSet
237 -259 m 0
 237 -248 246 -241 246 -241 c 1
 257 -241 277 -240 289 -239 c 0
 296 -239 299 -238 300 -231 c 0
 309 -182 308 -15 310 26 c 1
 267 3 219 -13 188 -13 c 0
 158 -13 110 9 79 36 c 0
 39 70 26 121 26 174 c 0
 26 282 123 368 233 368 c 0
 283 368 313 352 341 337 c 1
 382 367 l 1
 390 366 393 365 397 360 c 1
 392 317 390 306 390 270 c 0
 389 111 383 -6 381 -155 c 1
 381 -163 l 2
 381 -173 381 -184 382 -197 c 0
 383 -214 381 -234 427 -236 c 0
 430 -236 436 -245 436 -251 c 0
 436 -261 429 -272 429 -272 c 1
 429 -272 415 -271 395 -271 c 0
 371 -271 286 -276 244 -282 c 1
 244 -282 237 -275 237 -259 c 0
105 201 m 0
 105 124 149 48 229 48 c 0
 251 48 269 52 288 58 c 0
 310 65 312 68 313 97 c 0
 315 149 317 191 317 236 c 0
 317 274 268 322 220 322 c 0
 158 322 105 277 105 201 c 0
EndSplineSet
EndChar

StartChar: r
Encoding: 114 114 43
Width: 332
VWidth: 0
Flags: HW
HStem: 1 39<163.25 249.994> 1 31<44.001 75.4837> 287 82<224.813 290.47> 365 20G<132 154>
VStem: 77 81<42.0488 214.203> 84 74<44.643 263.055>
LayerCount: 3
Fore
SplineSet
152 385 m 1x54
 156 384 162 381 167 375 c 1
 166 362 162 320 162 292 c 1
 200 319 234 369 271 369 c 0
 300 369 316 347 316 323 c 0
 316 294 300 264 274 264 c 0
 253 264 244 287 230 287 c 0
 210 287 190 271 174 259 c 0
 158 247 160 248 159 219 c 0
 158 194 158 156 158 145 c 2
 158 103 l 2
 158 70 161 41 191 40 c 2
 246 38 l 1
 248 33 250 28 250 20 c 0
 250 15 249 7 247 1 c 1
 216 1 l 2xa8
 167 1 120 -1 76 -3 c 0
 65 -3 53 -1 46 1 c 1
 44 4 44 11 44 18 c 0
 44 24 44 29 45 32 c 1
 45 32 75 39 77 44 c 0x48
 83 56 83 179 84 216 c 2
 85 264 l 2
 85 272 82 278 70 284 c 0
 59 289 44 297 44 297 c 1
 42 300 41 303 41 307 c 0
 41 313 43 319 44 321 c 1
 82 343 112 364 152 385 c 1x54
EndSplineSet
EndChar

StartChar: s
Encoding: 115 115 44
Width: 318
VWidth: 0
Flags: HW
HStem: -12 40<105.344 200.34> 331 41<115.427 209.611>
VStem: 28 36<83.6896 121.812> 42 67<248.161 323.157> 214 76<40.6123 125.605> 244 27<263.547 285.36>
LayerCount: 3
Fore
SplineSet
151 28 m 0xe8
 187 28 214 50 214 82 c 0xe8
 214 171 42 143 42 276 c 0
 42 340 118 372 183 372 c 0
 205 372 227 369 246 362 c 0
 252 360 258 355 259 349 c 0
 263 318 271 268 271 268 c 1
 266 262 253 260 244 262 c 1
 244 262 215 331 162 331 c 0
 132 331 109 316 109 291 c 0xd4
 109 198 290 243 290 100 c 0
 290 25 215 -12 145 -12 c 0
 126 -12 99 -10 80 -7 c 0
 52 -3 30 -5 30 21 c 2
 30 76 l 2
 30 83 29 104 28 115 c 1
 35 120 42 122 50 122 c 0
 54 122 59 121 64 119 c 1
 79 85 92 65 106 47 c 0
 116 34 129 28 151 28 c 0xe8
EndSplineSet
EndChar

StartChar: t
Encoding: 116 116 45
Width: 308
VWidth: 0
Flags: HW
LayerCount: 3
Fore
SplineSet
34 306 m 1
 31 312 27 322 27 332 c 0
 27 335 27 338 28 341 c 1
 71 376 102 408 138 446 c 0
 140 448 145 449 148 449 c 0
 154 449 161 445 161 436 c 0
 161 419 156 405 156 377 c 2
 156 362 l 1
 274 370 l 1
 278 366 280 354 280 342 c 0
 280 329 278 316 273 311 c 1
 231 311 151 312 151 312 c 1
 150 278 148 188 148 144 c 0
 148 95 153 49 198 49 c 0
 216 49 236 58 254 68 c 0
 259 71 264 75 271 75 c 0
 279 75 280 62 280 54 c 0
 280 45 277 38 266 28 c 0
 239 5 201 -14 175 -14 c 0
 98 -14 68 24 68 124 c 0
 68 142 76 306 76 306 c 1
 34 306 l 1
EndSplineSet
EndChar

StartChar: u
Encoding: 117 117 46
Width: 480
VWidth: 0
Flags: HWO
LayerCount: 3
Fore
SplineSet
48 353 m 0
 81 359 97 362 146 370 c 1
 151 369 158 365 161 358 c 1
 158 335 155 308 153 282 c 0
 149 240 149 180 149 153 c 2
 149 141 l 2
 149 83 174 52 220 52 c 0
 258 52 316 91 316 91 c 1
 318 282 l 2
 318 301 309 312 282 320 c 0
 275 322 269 326 269 340 c 0
 269 351 276 354 293 357 c 0
 316 360 353 366 384 370 c 1
 391 369 399 361 399 352 c 0
 399 337 392 280 392 271 c 0
 390 237 389 213 389 189 c 0
 389 160 390 124 392 78 c 0
 392 68 393 56 405 56 c 0
 415 56 429 61 446 65 c 1
 458 65 463 61 463 48 c 0
 463 41 460 34 458 27 c 1
 402 15 359 -4 327 -14 c 1
 321 -9 316 0 316 0 c 1
 316 56 l 1
 316 56 255 -10 178 -10 c 0
 109 -10 70 40 70 102 c 0
 70 174 78 268 78 281 c 0
 78 304 60 311 45 316 c 0
 36 319 30 324 30 335 c 0
 30 346 36 351 48 353 c 0
EndSplineSet
EndChar

StartChar: zero
Encoding: 48 48 53
Width: 470
VWidth: 0
Flags: HW
LayerCount: 3
Fore
SplineSet
419 182 m 0
 419 69.4014052567 329.372698336 -11.0113872396 230.791930598 -11.0113872396 c 0
 131.727965896 -11.0113872396 46 57.8178227669 46 168 c 0
 46 279 122 369 234 369 c 0
 342 369 419 278 419 182 c 0
218 329 m 0
 160 329 126 264 126 202 c 0
 126 126 168 32 241 32 c 0
 312 32 336 98 336 162 c 0
 336 233 285 329 218 329 c 0
EndSplineSet
EndChar

StartChar: seven
Encoding: 55 55 54
Width: 424
VWidth: 0
Flags: HW
HStem: 279 69<85.2345 313.996> 382 20G<50.5 57>
VStem: 35 38<358.426 401.942>
LayerCount: 3
Fore
SplineSet
85 358 m 0
 90 349 95 348 120 348 c 2
 310 348 l 2
 332 348 367 352 376 352 c 0
 386 352 392 337 392 327 c 0
 392 315 365 271 357 254 c 2
 314 162 l 2
 300 133 285 105 270 77 c 2
 113 -221 l 1
 102 -223 92 -224 83 -224 c 0
 74 -224 66 -223 56 -222 c 1
 50 -217 50 -213 48 -206 c 1
 148 -70 229 91 306 250 c 0
 310 259 314 266 314 271 c 0
 314 277 309 279 292 279 c 0
 269 279 180 277 115 275 c 0
 88 274 88 273 78 250 c 0
 71 235 74 233 58 233 c 0
 47 233 40 244 40 257 c 0
 40 278 42 278 42 313 c 0
 42 345 35 367 35 386 c 0
 35 393 46 402 55 402 c 0
 59 402 70 399 73 392 c 0
 77 382 80 367 85 358 c 0
EndSplineSet
EndChar

StartChar: eight
Encoding: 56 56 55
Width: 496
VWidth: 0
Flags: HW
LayerCount: 3
Fore
SplineSet
257 589 m 0
 333 589 405 542 405 458 c 0
 405 415 380 382 353 363 c 0
 320 340 296 331 296 331 c 1
 308 326 338 312 353 302 c 0
 390 277 432 235 432 171 c 0
 432 68 343 -14 238 -14 c 0
 175 -14 122 28 96 53 c 0
 68 80 58 132 58 164 c 0
 58 247 176 300 185 304 c 1
 185 304 96 346 96 451 c 0
 96 532 183 589 257 589 c 0
214 286 m 1
 214 286 140 237 140 151 c 0
 140 88 181 30 242 30 c 0
 301 30 354 66 354 137 c 0
 354 234 215 285 214 286 c 1
174 456 m 0
 174 401 214 378 263 349 c 1
 263 349 335 374 335 465 c 0
 335 509 306 550 256 550 c 0
 199 550 174 504 174 456 c 0
EndSplineSet
EndChar

StartChar: nine
Encoding: 57 57 56
Width: 470
VWidth: 0
Flags: HW
LayerCount: 3
Fore
SplineSet
218 329 m 0
 160 329 126 264 126 202 c 0
 126 127 166 33 237 33 c 0
 323 33 336 98 336 162 c 0
 336 256 285 329 218 329 c 0
303 15 m 1
 276 3 256 -8 223 -8 c 0
 117 -8 46 66 46 168 c 0
 46 279 122 369 234 369 c 0
 359 369 418 269 418 154 c 0
 418 127 412 99 404 72 c 0
 362.274495204 -66.3529895872 232.19984908 -172.776048294 94 -217 c 1
 94 -217 85 -214 82 -209 c 0
 79 -205 79 -199 79 -195 c 0
 79 -191 79 -188 82 -186 c 0
 182 -128 246 -83 303 15 c 1
EndSplineSet
EndChar
